<svg width="140" height="140" viewBox="0 0 140 140" fill="none" xmlns="http://www.w3.org/2000/svg"><path d="M54.2063 123.015C53.4582 117.211 54.2063 89 52.5 68.5L62.8591 65H78.9771L84.4173 72.3172C82 89.5 87.6277 124.936 84.4173 130.855C80 139 56.7665 142.876 54.2063 123.015Z" fill="#FCFCFC" stroke="black"></path><path d="M46.4554 67.9056C50.1211 66.5194 50.2738 59.2416 49.8919 55.776L52.183 50C62.8746 50.1925 90.5581 51.2275 85.976 54C81.3939 56.7725 81.5848 63.2848 85.976 66.1728C87.5034 67.7131 89.6417 71.4867 85.976 74.2592C83.0775 76.4514 80.1791 73.3279 78.8753 70.7366C78.1734 72.8762 76.1886 75.2836 72.8024 74.2592C70.0194 73.4173 68.0815 71.8224 66.8605 70.3547C67.0997 71.8224 66.0946 73.4173 61.92 74.2592C55.6658 75.5206 54.6283 71.4576 54.9237 68.6847C54.6571 69.6593 53.9059 71.1364 52.183 72.5264C49.3192 74.8368 41.8733 69.6384 46.4554 67.9056Z" fill="#FDFDFD"></path><path d="M49.8919 55.776C50.2738 59.2416 50.1211 66.5194 46.4554 67.9056C41.8733 69.6384 49.3192 74.8368 52.183 72.5264C54.4741 70.6781 55.0468 68.6758 55.0468 67.9056C54.474 70.6011 55.0468 75.6455 61.92 74.2592C68.7931 72.873 67.0748 69.4459 65.3565 67.9056C65.9293 69.4459 68.2203 72.873 72.8024 74.2592C78.5301 75.992 80.2484 67.9056 78.5301 67.9056C76.8118 67.9056 81.3939 77.7248 85.976 74.2592C89.6417 71.4867 87.5034 67.7131 85.976 66.1728C81.5848 63.2848 81.3939 56.7725 85.976 54C90.5581 51.2275 62.8746 50.1925 52.183 50L49.8919 55.776Z" stroke="black"></path><path d="M64.7313 7.44185C24.6788 11.7761 16.255 38.5941 17.0497 51.4614C17.0497 65.5477 25.7914 66.8118 30.1622 65.683C37.3144 63.1998 55.3142 58.2335 70.0955 58.2335C88.5721 58.2335 110.029 62.9742 115.393 55.5247C120.757 48.0753 114.797 2.02407 64.7313 7.44185Z" fill="#FD5A4E" stroke="black"></path><ellipse cx="28" cy="55.5" rx="3" ry="3.5" fill="#FCFCFC"></ellipse><circle cx="102.5" cy="49.5" r="5.5" fill="#FCFCFC"></circle><ellipse cx="87.6026" cy="17.9238" rx="5.33959" ry="6.95456" transform="rotate(-50.2952 87.6026 17.9238)" fill="#FCFCFC"></ellipse><ellipse cx="46.0463" cy="23.3826" rx="2.55116" ry="3.32276" transform="rotate(-89.0659 46.0463 23.3826)" fill="#FCFCFC"></ellipse><ellipse cx="50.9646" cy="42.6435" rx="5.85541" ry="7.62639" transform="rotate(-89.0659 50.9646 42.6435)" fill="#FCFCFC"></ellipse><ellipse cx="74.6961" cy="40.2702" rx="5.85541" ry="7.62639" transform="rotate(-89.0659 74.6961 40.2702)" fill="#FCFCFC"></ellipse><path d="M21.5931 34.0396C23.9482 34.3314 28.4209 32.9727 27.4709 25.2028C25.8781 26.7989 22.4727 30.8007 21.5931 34.0396Z" fill="#FCFCFC"></path><path d="M74.139 132.812C76.0298 132.865 81.0838 131.531 81.8454 124.974" stroke="black"></path><path d="M82.2856 123.716C82.6199 123.536 83.2675 120.724 82.2966 118" stroke="black"></path></svg>